<?xml version="1.0" encoding="UTF-8" standalone="no"?>
<!-- Created with Inkscape (http://www.inkscape.org/) -->

<svg
   width="256"
   height="256"
   viewBox="0 0 67.733332 67.733333"
   version="1.1"
   id="svg1"
   inkscape:version="1.4 (86a8ad7, 2024-10-11)"
   sodipodi:docname="x_rounded_filledsvg.svg"
   xmlns:inkscape="http://www.inkscape.org/namespaces/inkscape"
   xmlns:sodipodi="http://sodipodi.sourceforge.net/DTD/sodipodi-0.dtd"
   xmlns="http://www.w3.org/2000/svg"
   xmlns:svg="http://www.w3.org/2000/svg">
  <sodipodi:namedview
     id="namedview1"
     pagecolor="#262626"
     bordercolor="#000000"
     borderopacity="0.25"
     inkscape:showpageshadow="2"
     inkscape:pageopacity="0.0"
     inkscape:pagecheckerboard="0"
     inkscape:deskcolor="#d1d1d1"
     inkscape:document-units="mm"
     inkscape:zoom="2"
     inkscape:cx="100.75"
     inkscape:cy="173.5"
     inkscape:window-width="1920"
     inkscape:window-height="991"
     inkscape:window-x="-9"
     inkscape:window-y="-9"
     inkscape:window-maximized="1"
     inkscape:current-layer="layer1" />
  <defs
     id="defs1">
    <inkscape:path-effect
       effect="fillet_chamfer"
       id="path-effect2"
       is_visible="true"
       lpeversion="1"
       nodesatellites_param="F,0,0,1,0,1.8468345,0,1 @ F,0,1,1,0,1.8468345,0,1 @ F,0,0,1,0,3.1437636,0,1 @ F,0,1,1,0,1.8468345,0,1 @ F,0,1,1,0,1.8468345,0,1 @ F,0,0,1,0,3.1437636,0,1 @ F,0,1,1,0,1.8468345,0,1 @ F,0,1,1,0,1.8468345,0,1 @ F,0,0,1,0,3.1437636,0,1 @ F,0,1,1,0,1.8468345,0,1 @ F,0,1,1,0,1.8468345,0,1 @ F,0,0,1,0,3.1437636,0,1"
       radius="0"
       unit="px"
       method="auto"
       mode="F"
       chamfer_steps="1"
       flexible="false"
       use_knot_distance="true"
       apply_no_radius="true"
       apply_with_radius="true"
       only_selected="false"
       hide_knots="false" />
    <inkscape:path-effect
       effect="fillet_chamfer"
       id="path-effect1"
       is_visible="true"
       lpeversion="1"
       nodesatellites_param="F,0,0,1,0,0,0,1 @ F,0,0,1,0,0,0,1 @ F,0,0,1,0,0,0,1 @ F,0,0,1,0,0,0,1 @ F,0,0,1,0,0,0,1 @ F,0,0,1,0,0,0,1 @ F,0,0,1,0,0,0,1 @ F,0,0,1,0,0,0,1 @ F,0,0,1,0,0,0,1 @ F,0,0,1,0,0,0,1 @ F,0,0,1,0,0,0,1 @ F,0,0,1,0,0,0,1"
       radius="0"
       unit="px"
       method="auto"
       mode="F"
       chamfer_steps="1"
       flexible="false"
       use_knot_distance="true"
       apply_no_radius="true"
       apply_with_radius="true"
       only_selected="false"
       hide_knots="false" />
  </defs>
  <g
     inkscape:label="Layer 1"
     inkscape:groupmode="layer"
     id="layer1">
    <path
       id="rect2"
       style="fill:#ffffff;stroke:#ffffff;stroke-width:2.64583;stroke-linejoin:round;stroke-dasharray:none"
       d="m 21.410418,19.562102 -1.848316,1.848316 a 1.941138,1.941138 91.426113 0 0 -0.0666,2.675183 l 6.743089,7.450227 a 3.4734456,3.4734456 90 0 1 0,4.661676 l -6.743089,7.450227 a 1.9411382,1.9411382 88.57389 0 0 0.0666,2.675183 l 1.848316,1.848317 a 1.9411378,1.9411378 1.4261164 0 0 2.675183,0.0666 l 7.450227,-6.743089 a 3.4734456,3.4734456 0 0 1 4.661676,0 l 7.450227,6.743089 a 1.941138,1.941138 178.57389 0 0 2.675183,-0.0666 l 1.848317,-1.848317 a 1.941138,1.941138 91.426113 0 0 0.0666,-2.675183 l -6.743089,-7.450227 a 3.4734456,3.4734456 90 0 1 0,-4.661676 l 6.743089,-7.450227 a 1.9411378,1.9411378 88.573884 0 0 -0.0666,-2.675183 l -1.848317,-1.848316 a 1.9411382,1.9411382 1.42611 0 0 -2.675183,-0.0666 l -7.450227,6.743089 a 3.4734456,3.4734456 0 0 1 -4.661676,0 l -7.450227,-6.743089 a 1.941138,1.941138 178.57389 0 0 -2.675183,0.0666 z"
       inkscape:path-effect="#path-effect2"
       inkscape:original-d="M 22.716327,18.256193 18.256193,22.716327 28.348198,33.866666 18.256193,45.017005 22.716327,49.47714 33.866666,39.385135 45.017005,49.47714 49.47714,45.017005 39.385135,33.866666 49.47714,22.716327 45.017005,18.256193 33.866666,28.348198 Z"
       sodipodi:nodetypes="ccccccccccccc" />
  </g>
</svg>
